<svg width="900" height="640" viewBox="0 0 900 640" fill="none" xmlns="http://www.w3.org/2000/svg">
  <rect width="900" height="640" rx="36" fill="#F5FBFB"/>
  <circle cx="720" cy="164" r="86" fill="#E5F8F6"/>
  <rect x="228" y="114" width="444" height="412" rx="28" fill="#152933"/>
  <rect x="278" y="164" width="344" height="312" rx="22" fill="#DFF4F3"/>
  <rect x="328" y="214" width="244" height="190" rx="14" fill="#10313A"/>
  <rect x="388" y="246" width="120" height="120" rx="20" fill="#81E4D8"/>
  <path d="M442 262V294L470 324H454V350L426 320H442V294L442 262Z" fill="#F7FFFE"/>
  <path d="M314 430H584" stroke="#73DCD3" stroke-width="12" stroke-linecap="round"/>
  <path d="M646 206L710 184V270L646 248V206Z" fill="#7CE7DA"/>
  <path d="M662 190V280" stroke="#0E1D2B" stroke-width="10" stroke-linecap="round"/>
  <path d="M606 170C632 148 665 142 700 152" stroke="#8DEFE5" stroke-width="10" stroke-linecap="round"/>
</svg>
